<mxfile host="app.diagrams.net" modified="2023-06-13T02:11:22.329Z" agent="Mozilla/5.0 (Macintosh; Intel Mac OS X 10_15_7) AppleWebKit/537.36 (KHTML, like Gecko) Chrome/114.0.0.0 Safari/537.36" version="21.3.8" etag="ioKIHaxFRdJCRfzUqaSt" type="github">
  <diagram name="Page-1" id="e0E_uxl3-hq24Q_Xspc2">
    <mxGraphModel>
      <root>
        <mxCell id="0" />
        <mxCell id="1" parent="0" />
      </root>
    </mxGraphModel>
  </diagram>
</mxfile>
